<svg width="30" height="30" viewBox="0 0 30 30" fill="none" xmlns="http://www.w3.org/2000/svg">
<path d="M11.8365 21.0235C11.7232 21.0235 11.609 20.9845 11.5159 20.9052L8.31089 18.1762C8.20033 18.0819 8.13676 17.9443 8.13676 17.7989C8.13676 17.6538 8.20061 17.5162 8.31089 17.4219L11.5159 14.6929C11.724 14.5155 12.0366 14.5406 12.214 14.7487C12.3912 14.9571 12.3663 15.2697 12.1579 15.4469L9.39598 17.7989L12.1579 20.1509C12.3663 20.3284 12.3912 20.6409 12.214 20.8491C12.1159 20.9643 11.9766 21.0235 11.8365 21.0235Z" fill="#4985FF"/>
<path d="M18.1635 21.0235C18.0234 21.0235 17.8841 20.9643 17.7862 20.8491C17.6088 20.6409 17.6339 20.3284 17.842 20.1509L20.604 17.7989L17.842 15.4469C17.6339 15.2697 17.6088 14.9571 17.7862 14.7487C17.9634 14.5406 18.2762 14.5155 18.4841 14.6929L21.6891 17.4219C21.7996 17.5162 21.8632 17.6538 21.8632 17.7989C21.8632 17.9443 21.7996 18.0819 21.6891 18.1762L18.4841 20.9052C18.3909 20.9845 18.2768 21.0235 18.1635 21.0235V21.0235Z" fill="#4985FF"/>
<path d="M13.8654 23.0704C13.8314 23.0704 13.7971 23.0668 13.7626 23.0596C13.4951 23.0032 13.3237 22.7404 13.3801 22.4728L15.3775 12.9893C15.4339 12.7217 15.6965 12.5504 15.9643 12.6067C16.2319 12.6631 16.4032 12.9257 16.3468 13.1935L14.3494 22.6771C14.3002 22.9103 14.0945 23.0704 13.8654 23.0704V23.0704Z" fill="#4985FF"/>
<path d="M26.6745 28.2372H3.32547C1.49193 28.2372 0 26.7456 0 24.9118V5.09435C0 3.26081 1.49193 1.76888 3.32547 1.76888H26.6745C28.5081 1.76888 30 3.26081 30 5.09435V24.9118C30 26.7456 28.5081 28.2372 26.6745 28.2372ZM3.32547 2.75945C2.03807 2.75945 0.990566 3.80695 0.990566 5.09435V24.9118C0.990566 26.1992 2.03807 27.2467 3.32547 27.2467H26.6745C27.9619 27.2467 29.0094 26.1992 29.0094 24.9118V5.09435C29.0094 3.80695 27.9619 2.75945 26.6745 2.75945H3.32547Z" fill="#4985FF"/>
<path d="M29.5047 9.69978H0.495283C0.221661 9.69978 0 9.47812 0 9.2045C0 8.93115 0.221661 8.70922 0.495283 8.70922H29.5047C29.7783 8.70922 30 8.93115 30 9.2045C30 9.47812 29.7783 9.69978 29.5047 9.69978Z" fill="#4985FF"/>
<path d="M8.46239 7.32972C7.59841 7.32972 6.89501 6.62632 6.89501 5.76234C6.89501 4.89808 7.59841 4.19496 8.46239 4.19496C9.32665 4.19496 10.0298 4.89808 10.0298 5.76234C10.0298 6.62632 9.32665 7.32972 8.46239 7.32972ZM8.46239 5.18552C8.14455 5.18552 7.88558 5.44422 7.88558 5.76234C7.88558 6.08046 8.14455 6.33916 8.46239 6.33916C8.78051 6.33916 9.03921 6.08046 9.03921 5.76234C9.03921 5.44422 8.78051 5.18552 8.46239 5.18552Z" fill="#4985FF"/>
<path d="M3.64663 7.31452C2.78238 7.31452 2.07925 6.6114 2.07925 5.74714C2.07925 4.88288 2.78238 4.17976 3.64663 4.17976C4.51089 4.17976 5.21401 4.88288 5.21401 5.74714C5.21401 6.6114 4.51089 7.31452 3.64663 7.31452ZM3.64663 5.17033C3.32879 5.17033 3.06982 5.4293 3.06982 5.74714C3.06982 6.06526 3.32879 6.32396 3.64663 6.32396C3.96475 6.32396 4.22345 6.06526 4.22345 5.74714C4.22345 5.4293 3.96475 5.17033 3.64663 5.17033Z" fill="#4985FF"/>
<path d="M13.2781 7.34465C12.4141 7.34465 11.711 6.64152 11.711 5.77726C11.711 4.91328 12.4141 4.21016 13.2781 4.21016C14.1423 4.21016 14.8455 4.91328 14.8455 5.77726C14.8455 6.64152 14.1423 7.34465 13.2781 7.34465ZM13.2781 5.20045C12.9602 5.20045 12.7015 5.45914 12.7015 5.77726C12.7015 6.09538 12.9602 6.35408 13.2781 6.35408C13.5962 6.35408 13.8549 6.09538 13.8549 5.77726C13.8549 5.45914 13.5962 5.20045 13.2781 5.20045Z" fill="#4985FF"/>
</svg>
