<svg width="15" height="15" viewBox="0 0 15 15" fill="none" xmlns="http://www.w3.org/2000/svg">
<g clip-path="url(#clip0_228_1569)">
<path d="M14.6064 11.5718L11.5704 9.54711C11.1851 9.29223 10.6686 9.3761 10.3838 9.73982L9.49941 10.8769C9.38575 11.0268 9.17915 11.0702 9.01473 10.9789L8.8465 10.8862C8.28883 10.5822 7.59495 10.2038 6.19691 8.80521C4.79886 7.40667 4.41967 6.71226 4.1157 6.15562L4.02346 5.98739C3.93087 5.823 3.97352 5.61552 4.12344 5.50096L5.25975 4.61685C5.62333 4.33198 5.70731 3.81567 5.45273 3.43027L3.42803 0.394217C3.16712 0.00175572 2.64366 -0.116059 2.23975 0.126747L0.970182 0.889378C0.571277 1.12389 0.278615 1.5037 0.153565 1.94921C-0.303603 3.61496 0.0403203 6.48979 4.2752 10.7252C7.64396 14.0937 10.1518 14.9995 11.8756 14.9995C12.2723 15.0012 12.6675 14.9496 13.0504 14.8461C13.496 14.7212 13.8759 14.4285 14.1103 14.0294L14.8736 12.7606C15.1168 12.3566 14.999 11.8329 14.6064 11.5718ZM14.4429 12.5042L13.6813 13.7737C13.513 14.0617 13.2398 14.2735 12.9189 14.3646C11.3811 14.7868 8.69453 14.4371 4.62888 10.3715C0.563222 6.30583 0.213556 3.61947 0.63575 2.08147C0.727025 1.76019 0.939045 1.48662 1.2274 1.31807L2.49697 0.556439C2.67222 0.450986 2.89942 0.502101 3.01263 0.672408L4.11248 2.32366L5.0356 3.7082C5.14615 3.87537 5.10983 4.09943 4.95212 4.22313L3.81554 5.10724C3.46966 5.37172 3.37088 5.85027 3.58384 6.23008L3.67409 6.39406C3.99355 6.97997 4.39073 7.70885 5.84077 9.15866C7.29081 10.6084 8.01946 11.0056 8.6051 11.3251L8.76932 11.4156C9.1491 11.6285 9.62768 11.5297 9.89216 11.1839L10.7763 10.0473C10.9 9.88965 11.124 9.85336 11.2912 9.96379L14.327 11.9885C14.4974 12.1016 14.5485 12.3289 14.4429 12.5042Z" fill="#999999"/>
<path d="M8.49956 2.50131C10.8453 2.50392 12.7463 4.40491 12.7489 6.75069C12.7489 6.88874 12.8608 7.00064 12.9989 7.00064C13.137 7.00064 13.2488 6.88874 13.2488 6.75069C13.2459 4.12892 11.1213 2.00427 8.49956 2.0014C8.36151 2.0014 8.24961 2.1133 8.24961 2.25136C8.24961 2.38941 8.36151 2.50131 8.49956 2.50131Z" fill="#999999"/>
<path d="M8.49956 4.00113C10.0174 4.00292 11.2474 5.23291 11.2492 6.75074C11.2492 6.88879 11.3611 7.00069 11.4991 7.00069C11.6372 7.00069 11.7491 6.88879 11.7491 6.75074C11.747 4.95692 10.2934 3.50328 8.49956 3.50123C8.36151 3.50123 8.24961 3.61313 8.24961 3.75118C8.24961 3.88924 8.36151 4.00113 8.49956 4.00113Z" fill="#999999"/>
<path d="M8.49956 5.50096C9.18946 5.50178 9.74854 6.06086 9.74939 6.75078C9.74939 6.88884 9.86131 7.00074 9.99934 7.00074C10.1374 7.00074 10.2493 6.88884 10.2493 6.75078C10.2482 5.78489 9.46546 5.00214 8.49956 5.00105C8.36151 5.00105 8.24961 5.11295 8.24961 5.25101C8.24961 5.38906 8.36151 5.50096 8.49956 5.50096Z" fill="#999999"/>
</g>
<defs>
<clipPath id="clip0_228_1569">
<rect width="15" height="15" fill="white"/>
</clipPath>
</defs>
</svg>
