<svg width="15" height="15" viewBox="0 0 15 15" fill="none" xmlns="http://www.w3.org/2000/svg">
<g clip-path="url(#clip0_228_1513)">
<path d="M13.1688 1.79235H1.83426C0.822471 1.79235 0 2.61482 0 3.62661V11.3734C0 12.3851 0.822471 13.2076 1.83426 13.2076H13.1657C14.1775 13.2076 15 12.3851 15 11.3734V3.62972C15.0031 2.61792 14.1806 1.79235 13.1688 1.79235ZM14.1651 11.3734C14.1651 11.9227 13.7182 12.3696 13.1688 12.3696H1.83426C1.28492 12.3696 0.837989 11.9227 0.837989 11.3734V3.62972C0.837989 3.08037 1.28492 2.63344 1.83426 2.63344H13.1657C13.7151 2.63344 14.162 3.08037 14.162 3.62972V11.3734H14.1651Z" fill="#999999"/>
<path d="M9.45997 7.40376L13.1285 4.11388C13.2992 3.9587 13.3147 3.69488 13.1595 3.52108C13.0044 3.35038 12.7405 3.33486 12.5667 3.49004L7.50777 8.0307L6.5208 7.14926C6.5177 7.14616 6.51459 7.14305 6.51459 7.13995C6.49287 7.11822 6.47114 7.0996 6.44631 7.08098L2.43017 3.48694C2.25637 3.33176 1.99256 3.34727 1.83737 3.52108C1.68219 3.69488 1.69771 3.9587 1.87151 4.11388L5.5835 7.43169L1.88703 10.8923C1.71944 11.0506 1.71012 11.3144 1.86841 11.4851C1.95221 11.572 2.06394 11.6185 2.17567 11.6185C2.27809 11.6185 2.38052 11.5813 2.46121 11.5068L6.21354 7.99656L7.23154 8.90593C7.31224 8.97732 7.41155 9.01146 7.51087 9.01146C7.61019 9.01146 7.71261 8.97421 7.7902 8.90283L8.83613 7.96552L12.5667 11.5099C12.6474 11.5875 12.753 11.6247 12.8554 11.6247C12.9671 11.6247 13.0757 11.5813 13.1595 11.4944C13.3178 11.3268 13.3116 11.0599 13.144 10.9016L9.45997 7.40376Z" fill="#999999"/>
</g>
<defs>
<clipPath id="clip0_228_1513">
<rect width="15" height="15" fill="white"/>
</clipPath>
</defs>
</svg>
